/* XPM */
static char *_547e2d451af4787b4a44481a0285a5f7eUhsDNepQrR7vAp[] = {
/* columns rows colors chars-per-pixel */
"32 32 11 1 ",
"  c #292829",
". c gray43",
"X c #B55700",
"o c #DB6804",
"O c #FF7E00",
"+ c #B0A400",
"@ c #FFF200",
"# c #F7AB68",
"$ c #00B7EF",
"% c #50C8E6",
"& c #99D9EA",
/* pixels */
"$$%%%%&&&&&&$$$&&$$$$$$$$$$&$$$$",
"%%%%&&&$$$$&&&&&%$$$$$$%%&&&$$$$",
"%%&&&$$$$$$$&&%%%%%$%%%%&&%%$$$$",
"%&&%%$$$$$$$$&&&%%%%%%%%&%%%%$$$",
"&&%%%%%$$$$$$$$&&%%%%%%&&%%%%%%%",
"&&&&&&&$$$$$$$$$&&&&&&&&&&&&&&%%",
"$$$$$$&&$$##$$$$$$&&$$$$$$$$$&&&",
"%$$$$$&&&$$@O$$$$$&$$$$$$$$$$$$&",
"%%%%%%%%&$$@O@O%%%&$$$$$$$$$$$$$",
"%%%%%%%%&%%$##@O%&&&%$$$$$$$$$%%",
"&&&&&$%&#%%%%#@OO&$&&&%%%%%%$%%&",
"$$$$$$$&#O%%%&@OO+$$$&&%%%%%%%&&",
"$$$$$$$$#OOO&OO@O+o$$$&&&&&&%&&&",
"$$$$$%%%##OO&OO@OO+o$$$$&&&&&&$$",
"$$$%%%&&&#OOOOO@OO+oX$$$$$&$$$$$",
"$$%%%%&$$##OOOO@OO+. X$$$&&$$$$$",
"$%%%%&&$$$#OOOO@OO+oXX$$$&&$$$$$",
"%%%&&&$$$##OOOO@OO+oXX$$$&%%$$$$",
"%&&&&$$$$#OO%OO@OO+oX$$$$%%%%%%%",
"&&&$$$$$##OO%OO@OO+o$$$$$&&%%%&%",
"&&$$$$$$#O$$%%O@Oo+$$$$$$$&&%&&&",
"&&$$$$$$#$$%%%@OOo%%$$$$$$$&&&&&",
"$$$$$$$$$$%%%#@OO%%%%%%%%%%%&&&&",
"%$$$$$$$$$%%##@O%%%%%%%%%%&&&&$$",
"%%%$$$$$$$$$#@&%%%%%%%%%%&&&&$$$",
"%%%%%$$$$$$@O&&&&&&&&&&&%&&$$$$$",
"%%%%%%%%%$%%%%%&&$$$$$$&&&$$$$$$",
"&&&&&%%%%%%%%&&&$$$$$$$$&&$$$$$$",
"&$$$&&%%&&%&&$$$$$$$$$$$&%%$$$$$",
"$$$$$&&&&&&&$$$$%%%%%%%%&&%%%$$$",
"$$$$$%%%&&%%%%%%%%%&&&&&&&&&%%%%",
"$$$%%%%&&&%%&&&&&&&%%%$$$$$&&%%%"
};
