/* XPM */
static char *_2a4b83ddabe49d0b9e91a9f20061513LmyVVow5IapdrrpY[] = {
/* columns rows colors chars-per-pixel */
"32 32 12 1 ",
"  c #292829",
". c gray43",
"X c #B55700",
"o c #DB6804",
"O c #FF7E00",
"+ c #B0A400",
"@ c #FFF200",
"# c #F7AB68",
"$ c #00B7EF",
"% c #50C8E6",
"& c #F5E49C",
"* c #99D9EA",
/* pixels */
"$$%%%%******$$$**$$$$$$$$$$*$$$$",
"%%%%***$$$$*****%$$$$$$%%***$$$$",
"%%***$$$$$$$**%%%%%$%$%%**%%$$$$",
"%**%%$$$$$$$$***%%%%%$%%*%%%%$$$",
"**%%%%%$$$$$$$$**%%%$$%**%%%%%%%",
"*******$$$$$$$$$**************%%",
"$$$$$$***$$$$$$$$$**$$$$$$$$$***",
"$$$$$$$$*$$$O#$$$$$**$$$$$$$$$$*",
"%%%%%%$%%*$$$O#@$$****$$$$$$$$$$",
"%%%%%%%%**$$%%@O#*$$$*$$$$$$$$%%",
"**********%%%%%OO&$$$$*$$$$$$%%*",
"$$$$$$$$**%%%%%o@O#$$$**%%%%%%**",
"$$$$$$$$$**%o%oo@O#@$$$$*%%%%***",
"$$$$$$$$$%**ooo@OO@O#$$$**%%**$$",
"$$$$$$$%%%**ooo@OO@OO#$$$***$$$$",
"$$$$%%%%**%$$oo@OO@O .O$$$**$$$$",
"$%%%%%***$$$ooo@OO@OOOO$$$**$$$$",
"%%%***$$$$$$XXo@OO@OXX$$$**$$$$$",
"%****$$$$$$$X$oo@OX+X$$$$*$$$%%%",
"***$$$$$$$$$*$$o@XX$$$$$$*%%%%*%",
"**$$$$$$$$$$*$+XX+$$$$$$$$**%***",
"**$$$$$$$$$**XX+$$$$$$$$$$$*****",
"$$$$$$$$$$$*XX%$$$$$$$$%%%%%****",
"$$$$$$$$$$$$*%%%$%%%%%%%%%****$$",
"%%%$$$$$$$$$***%%%%%%%%%%****$$$",
"%%%%$$$$$$$$$%*************$$$$$",
"%%%%%%%$$$%%%%%**$$$$$$***$$$$$$",
"*****%%%%%%%%***$$$$$$$$**$$$$$$",
"*$$$**%%**%**$$$$$$$$$$$*%%$$$$$",
"$$$$$*******$$$$%%%%%%%%**%%%$$$",
"$$$$$%%%**%%%%%%%%%*********%%%%",
"$$$%%%%***%%*******%%%$$$$$**%%%"
};
