/* XPM */
static char *_355056f0ff34ffefd847a7b16589d9abbBb3YRTKwMKmcKK[] = {
/* columns rows colors chars-per-pixel */
"32 32 10 1 ",
"  c black",
". c #B55700",
"X c #FF7E00",
"o c #B0A400",
"O c #FFF200",
"+ c #F7AB68",
"@ c #00B7EF",
"# c #50C8E6",
"$ c #9C999C",
"% c #99D9EA",
/* pixels */
"@@####%%%%%%@@@%%@@@@@@@@@@%@@@@",
"####%%%@@@@%%%%%#@@@@@@##%%%@@@@",
"##%%%@@@@@@@%%#####@####%%##@@@@",
"#%%##@@@@@@@@%%%########%####@@@",
"%%#####@@@@@@@@%%######%%#######",
"%%%%%%%@X+@@@@@@%%%%%%%%%%%%%%##",
"@@@@@@%%XXX+@@@@@@%%@@@@@@@@@%%%",
"#@@@@@%%%@XXOO@@@@%@@@@@@@@@@@@%",
"########%@@XOX++@@%@@@@@@@@@@@@@",
"########%@@@OXXXOO%%#@@@@@@@@@##",
"%%%%%X#%%####XXXO+++########@##%",
"@@@@@X+%#####XXOOXXOO+########%%",
"@@@@@XXX+###XXXOXXXOX++O#%%%#%%%",
"@@@@@XXXX+#XXXXOXXXOXXXO++%%%%@@",
"@@@@@@XXXXXXXXXOXXXOXXXOXX+@@@@@",
"@@@@##XXXXXXXXXOXXXOXXXO $XX@@@@",
"@#####XXXXXXXXXOXXXOXXXOXXXX@@@@",
"###%%XXX..@.XXXOXXXOXXXOXXX@@@@@",
"#%%%%XX..@@@XXXOXXXOXXXO...@@###",
"%%%@@X.@@@@@%XXOXXXOXX.o.%%###%#",
"%%@@@X@@@@@@%XXOXXXXo..@@@%%#%%%",
"%%@@@@@@@@@%XXXOXX..o@@@@@@%%%%%",
"@@@@@@@@@@%%XXXoo..@@@@#####%%%%",
"@@@@@@@@@@XOO...o#########%%%%@@",
"###@@@@@X...o%%##########%%%%@@@",
"####@@@@..@@@#%%%%%%%%%%#%%@@@@@",
"#######@@@#####%%@@@@@@%%%@@@@@@",
"%%%%%########%%%@@@@@@@@%%@@@@@@",
"%@@@%%##%%#%%@@@@@@@@@@@%##@@@@@",
"@@@@@%%%%%%%@@@@########%%###@@@",
"@@@@@###%%#########%%%%%%%%%####",
"@@@####%%%##%%%%%%%###@@@@@%%###"
};
