/* XPM */
static char *_17a43d61d264de0906a008ff0bf336bvSV78zLCdplJ1ovt[] = {
/* columns rows colors chars-per-pixel */
"32 32 17 1 ",
"  c #292829",
". c #573121",
"X c #7A432D",
"o c #990030",
"O c #B55700",
"+ c #9C5A3C",
"@ c #AB5F41",
"# c #AB7342",
"$ c #C97253",
"% c #948B0A",
"& c #F7AB68",
"* c #00B7EF",
"= c #50C8E6",
"- c gray63",
"; c #99D9EA",
": c gray86",
"> c white",
/* pixels */
"**====;;;;;;***************;****",
"====;;;****;;  ;;******==;;;****",
"==;;;******* oo ;====*==;;==****",
"=;;==******* oo ;;======;====***",
";;==*********** *;;=    ;=======",
";;;;**********$X.*;;** -  ;;;;==",
"***;;;******$++++X.;* * -: **;;;",
"**==;;==****$+++X..=* * -:: ***;",
"===;;;;====**+++X.*== * -::: ***",
"*==.......****+X.***= * -::: *==",
"*==.XX.XX.**==+X.**** * -::: ==;",
"*=XX####OX**==+X.**** * -:-- ==;",
"*==X#%#%OX===*+X.**** * --  ==;;",
"*==X&%%#OX==**+X.**** * - *==***",
"*==X&##@OX==**+X.****    ===*..*",
"*==X&XX@OX*=**+X.**** ***=XX...*",
"**;X&XX@OX*=**+X.**** ..XX++XX.*",
"**XXXXXXXX*==*+X.***XXXX+++++X.*",
"=*X$$$$$++++XXXXXXXXX+++++$++X.=",
"=;++$$$$$++++++++++++++$$$$+X.;=",
";;;++++$$$$$$$$$$$$$$$$$$+++X.;;",
";;;.XX+++++++++++++++++++++XX.;;",
"**;;..XXXXXXXXXXXXXXXXXXXXX..;;;",
"***;;;;.;;;...;;.....>>>...;;;**",
"===;;;;;;;;>>>;;;;>>>>>>>;;;;***",
"====**;;;**;;;;;;;;;;;;;;;;*****",
"====*********;;;;;***;;;;;******",
";;;;;*******;;**********;;******",
";***;;*****;;*****=====*;==*****",
"*****;;;;;;;*****=======;====***",
"*****===;;=========;;;;;;;;=====",
"***====;;;=======;;;******;;===="
};
