/* XPM */
static char *_da8259e3fd14904de11435ab4ad3636kOKbbFCN61N76wr8[] = {
/* columns rows colors chars-per-pixel */
"32 32 10 1 ",
"  c black",
". c gray43",
"X c #B55700",
"o c #FF7E00",
"O c #B0A400",
"+ c #FFF200",
"@ c #F7AB68",
"# c #00B7EF",
"$ c #50C8E6",
"% c #99D9EA",
/* pixels */
"##$$$$%%%%%%$$$$%%%########%####",
"$$$$%%%#####%%%%%######$$$%%####",
"$$%%%########%$$#####$$$$$%#####",
"$%%$$#######$%$$$$$$$$$$$%$$$$##",
"%%$$$$######$%%$$$$$$$$$$%$$$$$$",
"%%%%%%%%######%%%%$$%%@o%%%%%$$$",
"#######%%########%%%@ooo####%%%$",
"#######$%#########++oo########%%",
"$####$$$%#######@@o+o$$$$#######",
"$$$$$$$$%#####++ooo+%%%$$$$$##$$",
"$$$$$$$$%###@@@+ooo####%%%o$$$$%",
"$%%$$$%%$$@++oo++oo######@o$$$$%",
"%%%%%%%%+@@o+ooo+ooo###@ooo%$$%%",
"######@@+ooo+ooo+oooo#@oooo%%%##",
"#####@oo+ooo+ooo+ooooooooo$$%###",
"####oo. +ooo+ooo+ooooooooo$%####",
"###$oooo+ooo+ooo+ooooooooo%%####",
"#$$$$ooo+ooo+ooo+oooX#XXooo%####",
"$$$$%XXX+ooo+ooo+ooo###XXoo%$$$$",
"$$%%###XOXXX+ooo+oo######Xo%%#$$",
"$$%######XXOOooo+oo#######o#%%%$",
"%%%########OXXXo+ooo#########$%%",
"#############XXOOooo#######$$$%%",
"############%%$OXXX++o$$$$$$%%##",
"$$$##########%%$$$$OXXXo$$$%%###",
"$$$$######$$$$%%$$$$$$XX%%%%####",
"$$$$$$$$$$$$$$$%%%%%%%%%%%######",
"%%%%%$$$$$$$$$%%%####%%%########",
"%###%%$$$$$%%%#########%########",
"#####%%%%%%%######$$$$$%%$$$$$##",
"#####$$$%%$$$$$#$$$%%%%%%%%$$$$$",
"###$$$$%%%$$$$$$$%%%######%%$$$$"
};
