/* XPM */
static char *b666e4a2b38149afd9a74c23ce44670ehivVHuZiAizSDnHc[] = {
/* columns rows colors chars-per-pixel */
"32 32 11 1 ",
"  c #292829",
". c gray43",
"X c #B55700",
"o c #DB6804",
"O c #FF7E00",
"+ c #B0A400",
"@ c #FFF200",
"# c #F7AB68",
"$ c #00B7EF",
"% c #50C8E6",
"& c #99D9EA",
/* pixels */
"$$%%%%&&&&&&$$$&&$$$$$$$$$$&$$$$",
"%%%%&&&$$$$&&&&&%$$$$$$%%&&&$$$$",
"%%&&&$$$$$$$&&%%%%%$%%%%&&%%$$$$",
"%&&%%$$$$$$$$&&&%%%%%%%%&%%%%$$$",
"&&%%%%%$$$$$$$$&&%%%%%%&&%%%%%%%",
"&&&&&&&$$$$$$$$$&&&##&&&&&&&&&%%",
"$$$$$$&&$$$$$$$$$$O@$$$$$$$$$&&&",
"%$$$$$&&&$$$$$$$O@O@$$$$$$$$$$$&",
"%%%%%%%%&$$$$$$O@##%%%$$$$$$$$$$",
"%%%%%%%%&%%$$$OO@#%&%%#$$$$$$$%%",
"&&&&&$%&&%%%%+OO@&$&&O#%%%%%$%%&",
"$$$$$$$&&%%%o+O@OO$OOO#%%%%%%%&&",
"$$$$$$$$&%%o+OO@OO$OO##&&&&&%&&&",
"$$$$$%%%&&Xo+OO@OOOOO#$$&&&&&&$$",
"$$$%%%&&&X .+OO@OOOO##$$$$&$$$$$",
"$$%%%%&$$XXo+OO@OOOO#$$$$&&$$$$$",
"$%%%%&&$$XXo+OO@OOOO##$$$&&$$$$$",
"%%%&&&$$$$Xo+OO@OO$OO#$$$&%%$$$$",
"%&&&&$$$$$$o+OO@OO$OO##$$%%%%%%%",
"&&&$$$$$$$$$+oO@O$$$$O#$$&&%%%&%",
"&&$$$$$$$$$$%oOO@$$$$$#$$$&&%&&&",
"&&$$$$$$$$$%%%OO@#%%$$$$$$$&&&&&",
"$$$$$$$$$$%%%&$O@##%%%%%%%%%&&&&",
"%$$$$$$$$$%%&%%%%@#%%%%%%%&&&&$$",
"%%%$$$$$$$$$&&&%%%O@%%%%%&&&&$$$",
"%%%%%$$$$$$$$&&&&&&&&&&&%&&$$$$$",
"%%%%%%%%%$%%%%%&&$$$$$$&&&$$$$$$",
"&&&&&%%%%%%%%&&&$$$$$$$$&&$$$$$$",
"&$$$&&%%&&%&&$$$$$$$$$$$&%%$$$$$",
"$$$$$&&&&&&&$$$$%%%%%%%%&&%%%$$$",
"$$$$$%%%&&%%%%%%%%%&&&&&&&&&%%%%",
"$$$%%%%&&&%%&&&&&&&%%%$$$$$&&%%%"
};
