/* XPM */
static char *_5825aaf7c10444eea3c992414ea03d0apy8CUMeKFnww8I8[] = {
/* columns rows colors chars-per-pixel */
"32 32 12 1 ",
"  c #292829",
". c gray43",
"X c #B55700",
"o c #DB6804",
"O c #FF7E00",
"+ c #B0A400",
"@ c #FFF200",
"# c #F7AB68",
"$ c #00B7EF",
"% c #50C8E6",
"& c #F5E49C",
"* c #99D9EA",
/* pixels */
"$$%%%%******$$$**$$$$$$$$$$*$$$$",
"%%%%***$$$$*****%$$$$$$%%***$$$$",
"%%***$$$$$$$**%%%%%$%$%%**%%$$$$",
"%**%%$$$$$$$$***%%%%%%%%*%%%%$$$",
"**%%%%%$$$$$$$$**%%%%%%**%%%%%%%",
"*******$$$$$$$$$**************%%",
"$$$$$$***$$$$$$$$$**$$$$$$$$$***",
"$$$$$$$$*$$$$$$$$$#O*$$$$$$$$$$*",
"%%%%%%$%%*$$$$$$@#O***$$$$$$$$$$",
"%%%%%%%%**$$%%%#O@$$$*$$$$$$$$%%",
"**********%%%%&OO$$$$$*$$$$$$%%*",
"$$$$$$$$**%%%#O@o$$$$$**%%%%%%**",
"$$$$$$$$$**%@#O@oo%o$$$$*%%%%***",
"$$$$$$$$$%*#O@OO@ooo%$$$**%%**$$",
"$$$$$$$%%%#OO@OO@ooo%%$$$***$$$$",
"$$$$%%%%*O. O@OO@oo%%$$$$$**$$$$",
"$%%%%%***OOOO@OO@ooo$$$$$$**$$$$",
"%%%***$$$$XXO@OO@oXX$$$$$**$$$$$",
"%****$$$$$$X+XO@oo$X$$$$$*$$$%%%",
"***$$$$$$$$$*XX@o$$$$$$$$*%%%%*%",
"**$$$$$$$$$$*$+XX+$$$$$$$$**%***",
"**$$$$$$$$$**$$$+XX$$$$$$$$*****",
"$$$$$$$$$$$**%%$$$XX$$$%%%%%****",
"$$$$$$$$$$$$*%%%$%%%%%%%%%****$$",
"%%%$$$$$$$$$***%%%%%%%%%%****$$$",
"%%%%$$$$$$$$$%*************$$$$$",
"%%%%%%%$$$%%%%%**$$$$$$***$$$$$$",
"*****%%%%%%%%***$$$$$$$$**$$$$$$",
"*$$$**%%**%**$$$$$$$$$$$*%%$$$$$",
"$$$$$*******$$$$%%%%%%%%**%%%$$$",
"$$$$$%%%**%%%%%%%%%*********%%%%",
"$$$%%%%***%%*******%%%$$$$$**%%%"
};
