/* XPM */
static char *f342d82fca5a43e482c9e9e1890502d32GqEyrxuILKiRDdX[] = {
/* columns rows colors chars-per-pixel */
"32 32 8 1 ",
"  c #7A432D",
". c #B55700",
"X c #FF7E00",
"o c #B0A400",
"O c #F7AB68",
"+ c #00B7EF",
"@ c #50C8E6",
"# c #99D9EA",
/* pixels */
"++@@@@######+++##++++++++++#++++",
"@@@@###++++#####@++++++@@###++++",
"@@###+++++++##@@@@@+@+@@##@@++++",
"@##@@++++++++###@@@@@+@@#@@@@+++",
"##@@@@@++++++++##@@@++@##@@@@@@@",
"#######+++++++++##############@@",
"++++++###+++++++++##+++++++++###",
"++++++++#++++++o+++##++++++++++#",
"@@@@@@+@@#++++o.o+####++++++++++",
"@@@@@@@@##++@@.O.#+++#++++++++@@",
"##########@@@@OOO+++++#++++++@@#",
"++++++++##@@@@OXO+++++##@@@@@@##",
"+++++++++##@+.XXX ++++++#@@@@###",
"+++++++++@##+.XXX ++++++##@@##++",
"+++++++@@@##+..X. +++++++###++++",
"++++@@@@##@++...  ++++++++##++++",
"+@@@@@###++++...  ++++++++##++++",
"@@@###+++++++..X. +++++++##+++++",
"@####++++++++.XXX +++++++#+++@@@",
"###+++++++++#.XXX +++++++#@@@@#@",
"##++++++++++#+OXO+++++++++##@###",
"##+++++++++##+OOO++++++++++#####",
"+++++++++++#++.O.++++++@@@@@####",
"++++++++++++#@o.o@@@@@@@@@####++",
"@@@+++++++++###o@@@@@@@@@####+++",
"@@@@+++++++++@#############+++++",
"@@@@@@@+++@@@@@##++++++###++++++",
"#####@@@@@@@@###++++++++##++++++",
"#+++##@@##@##+++++++++++#@@+++++",
"+++++#######++++@@@@@@@@##@@@+++",
"+++++@@@##@@@@@@@@@#########@@@@",
"+++@@@@###@@#######@@@+++++##@@@"
};
