/* XPM */
static char *_37c64ea1f3b48c8fbff90030f0898a5dqz5HMsr7gooxknh[] = {
/* columns rows colors chars-per-pixel */
"32 32 10 1 ",
"  c black",
". c gray43",
"X c #B55700",
"o c #FF7E00",
"O c #B0A400",
"+ c #FFF200",
"@ c #F7AB68",
"# c #00B7EF",
"$ c #50C8E6",
"% c #99D9EA",
/* pixels */
"####%########%%%$$$$%%%%%%$$$$##",
"####%%$$$######%%%%%#####%%%$$$$",
"#####%$$$$$#####$$%########%%%$$",
"##$$$$%$$$$$$$$$$$%$#######$$%%$",
"$$$$$$%$$$$$$$$$$%%$######$$$$%%",
"$$$%%%%%o@%%$$%%%%######%%%%%%%%",
"$%%%####ooo@%%%########%%#######",
"%%########oo++#########%$#######",
"#######$$$$o+o@@#######%$$$####$",
"$$##$$$$$%%%+ooo++#####%$$$$$$$$",
"%$$$$o%%%####ooo+@@@###%$$$$$$$$",
"%$$$$o@######oo++oo++@$$%%$$$%%$",
"%%$$%ooo@###ooo+ooo+o@@+%%%%%%%%",
"##%%%oooo@#oooo+ooo+ooo+@@######",
"###%$$ooooooooo+ooo+ooo+oo@#####",
"####%$ooooooooo+ooo+ooo+ .oo####",
"####%%ooooooooo+ooo+ooo+oooo$###",
"####%oooXX#Xooo+ooo+ooo+ooo$$$$#",
"$$$$%ooXX###ooo+ooo+ooo+XXX%$$$$",
"$$#%%oX######oo+ooo+XXXOX###%%$$",
"$%%%#o#######oo+oooOOXX######%$$",
"%%$#########ooo+oXXXO########%%%",
"%%$$$#######oooOOXX#############",
"##%%$$$$$$o++XXXO$%%############",
"###%%$$$oXXXO$$$$%%##########$$$",
"####%%%%XX$$$$$$%%$$$$######$$$$",
"######%%%%%%%%%%%$$$$$$$$$$$$$$$",
"########%%%####%%%$$$$$$$$$%%%%%",
"########%#########%%%$$$$$%%###%",
"##$$$$$%%$$$$$######%%%%%%%#####",
"$$$$$%%%%%%%%$$$#$$$$$%%$$$#####",
"$$$$%%######%%%$$$$$$$%%%$$$$###"
};
