/* XPM */
static char *eed9bb8530c948439cf75f6601c062adbQcYqYktVdmXSSgn[] = {
/* columns rows colors chars-per-pixel */
"32 32 10 1 ",
"  c black",
". c #ED1C24",
"X c #B55700",
"o c #FF7E00",
"O c #B0A400",
"+ c #FFF200",
"@ c #F7AB68",
"# c #00B7EF",
"$ c #50C8E6",
"% c #99D9EA",
/* pixels */
"##$$$$%%%%%%###%%##########%####",
"$$$$%%%####%%%%%$######$$%%%####",
"$$%%%#######%%$$$$$#$#$$%%$$####",
"$%%$$########%%%$$$$$#$$%$$$$###",
"%%$$$$$########%%$$$##$%%$$$$$$$",
"%%%%%%%#########%%%%%%%%%%%%%%$$",
"######%%%#########%%#########%%%",
"########%######o###%%##########%",
"$$$$$$#$$%#####o##%%%%##########",
"$$$$$$$$%%##$$@OX%###%########$$",
"%%%%%%%%%%$$$$+oO#####%######$$%",
"########%%$$$$@oX#####%%$$$$$$%%",
"#########%%$#@+OOX######%$$$$%%%",
"#########$%%#+oooO######%%$$%%##",
"#######$$$%%#@oooX#######%%%####",
"####$$$$%%$## ooo ########%%####",
"#$$$$$%%%####@oooX########%%####",
"$$$%%%#######@o.oX#######%%#####",
"$%%%%########+o.oO#######%###$$$",
"%%%#########%@+OOX#######%$$$$%$",
"%%##########%#@oX#########%%$%%%",
"%%#########%%#+oO##########%%%%%",
"###########%##@OX######$$$$$%%%%",
"############%$$o#$$$$$$$$$%%%%##",
"$$$#########%%%o$$$$$$$$$%%%%###",
"$$$$#########$%%%%%%%%%%%%%#####",
"$$$$$$$###$$$$$%%######%%%######",
"%%%%%$$$$$$$$%%%########%%######",
"%###%%$$%%$%%###########%$$#####",
"#####%%%%%%%####$$$$$$$$%%$$$###",
"#####$$$%%$$$$$$$$$%%%%%%%%%$$$$",
"###$$$$%%%$$%%%%%%%$$$#####%%$$$"
};
