/* XPM */
static char *e1cf11829c8f450f81f9414ca11479d9yEIHGojwM0nrztnF[] = {
/* columns rows colors chars-per-pixel */
"32 32 6 1 ",
"  c black",
". c #005873",
"X c #048AB3",
"o c #00B7EF",
"O c #50C8E6",
"+ c #99D9EA",
/* pixels */
"ooOOOO++++++OOOO+++oooooooo+oooo",
"OOOO+++ooooo+++++ooooooOOO++oooo",
"OO+++ooooXXXoo++++++oo+ooO+ooooo",
"O++OOoooXXooooooooooooo+oooOOOoo",
"++OOOoooooooo++++ooooooo+ooOOOOO",
"++++ooooooooXXXXXXXooooooooo+OOO",
"oooooXoooXXXXoooooooo+++oooo+++O",
"oooo+XoooXooo+++ooooXXX++oXooo++",
"Ooo++XooXooooXXXXoooooXX++XXoooo",
"OOo+XoooXXooXXoooXXXooooX++XooOO",
"OOo+XooXXooXXoXXXXoXXoooXX+ooOO+",
"O+o+Xo+XXoXXoXXXXXXXXXoooXoooOO+",
"++ooXo+XooXoXXX..XXXXoXooXoooo++",
"ooooXo+XooXXXX....XXXoXXoXoooooo",
"ooooXo+XooXXX..  ..XXooXooXo+Xoo",
"ooooXXoXXoXXX.   ..XXooXooX++Xoo",
"oo+ooXooXoXXX.. ..XXXoXooXX+oXoo",
"oO+ooXooXXoXXX...XXXooXooX++oXoo",
"OO++oooooXoXXXXXXXXooXXoXX+oooOO",
"OO++oooo++XooXXXXXXoXXooX++oooOO",
"OO++ooooo++XXoooooXXXooXXooooo+O",
"+++++ooXoo++oXXXXXXoooXXooXXoo++",
"oooo+ooXXooooooooooooXXoooXooo++",
"oooo++ooXXXXoXXo+++ooooooXXo++oo",
"OOOoo++oooooXXXXXXXoooo+ooo++ooo",
"OOOOooo+oXoooooooooXo++ooo++oooo",
"OOOOooooooXXXXXXooXX+++oo+oooooo",
"+++++Ooooooo++++++++++o+oooooooo",
"+ooo++OOooooooooooooooo+oooooooo",
"ooooo+++++++ooooooOOOOO++OOOOOoo",
"oooooOOO++OOOOOoOOO++++++++OOOOO",
"oooOOOO+++OOOOOOO+++oooooo++OOOO"
};
