/* XPM */
static char *_fdee554eed04b1ff994837d97a7b528fhcscbG5VjzXCIyC[] = {
/* columns rows colors chars-per-pixel */
"32 32 3 1 ",
"  c #00B7EF",
". c #50C8E6",
"X c #99D9EA",
/* pixels */
"  ....XXXXXX....XXX        X    ",
"....XXX     XXXXX      ...XX    ",
"..XXX        X..     ...XXX.    ",
".XX..       .X..........X...... ",
"XX....      .XX.........X.......",
"XXXX..       XXXXX...XXXXXXXXXX.",
"   XXXX          XXXX         XX",
"     XX           X             ",
".    XX           X.            ",
". ....X           X...          ",
".......X.     ...XX......  ....X",
".XXX...XX.  ....XXXXXXX........X",
"XXXXXXXXX......X       XX.....XX",
"       XX.....XX        XX..XX  ",
"        XXXX..X          XXXX   ",
"       XXX XXX..        ..XX    ",
"   ...X       X....     ..XX    ",
" ....XX       XX...      .X.    ",
"....XX.        XXX        X.....",
"..XX...     ...XX         ......",
"..XX       ..XX           XX....",
"XXX        .XX              XXXX",
"           XX..             ..XX",
"            XX...... .... ...XX ",
"..           X.............XX   ",
"........      XX........XXX     ",
".......... ....XXXXXXXXXXX      ",
"XXXXX........XXXX    XXX        ",
"X   XX......XX         X        ",
"     XXXXXXX      .....XX.....  ",
"     ...XX..... ...XXXXXXXX.....",
"   ....XXX.......XXX      XX...."
};
