/* XPM */
static char *_021bfd8d0e7494de45e38750d6d40f7ABJ5LPZFvP2s52JR[] = {
/* columns rows colors chars-per-pixel */
"32 32 7 1 ",
"  c black",
". c #292829",
"X c #005873",
"o c #048AB3",
"O c #00B7EF",
"+ c #50C8E6",
"@ c #99D9EA",
/* pixels */
"OO++++@@@@@@OOO@@OOOOOOOOOO@OOOO",
"++++@@@OOOO@@@@@OOOOOOO++@@@OOOO",
"++@@@OOOOOoooooOOoOO+O++@@++OOOO",
"+@@++OOOooooOOO+OOooo+++@++++OOO",
"@@++OOOooOOOOOOOO++oooooo+++++++",
"@@@@OooOOoOooooooOOO+o@Oo@@@@@++",
"OOO@ooOOOoooooooooooOOOOoooOO@@@",
"OO+@oOOOooooXXXXXoooooOOOooooOO@",
"+++ooOOoooXXXXXXXXXXXoooOOoOoOOO",
"O+@oOOooooXXXXXXXXoooooooOOOOO++",
"O+@oOOoooXXXX......XXXXoooOOO++@",
"O+@oOooooXXX.....XXXXXXXoooOoO@@",
"O+@oOooXoX.X..........XXXooOoO@@",
"O++oOooXoX....   .....XXXooOooOO",
"OOOoOooXoX...     ...XoXXooOooOO",
"OOOoOooXXX...      ..XooXooOooOO",
"OOOOOooXXX....     ..XXoXooOooOO",
"OOO@oooXXXX...    ...XXoXooOoOOO",
"+@@@ooooXXXX.........XXooooOoOO+",
"@@OOOoooXXXXXXX.....XXXoooOOoO@+",
"@@OOOoooooXXX......XXXXooOOOO@@@",
"@@OooOoooooXXXXXXXXXXXoooOoOO@@@",
"OO@OooOooooooooooXXXXXooOooO@@@@",
"OOO@ooOOoooooXXXXXXXXooooo@@@@OO",
"+++@@ooOOoooooooooooooOOo@@@@OOO",
"++++OOooOOOooooooooooOoo@@@OOOOO",
"++++++OoOOOOOOOOOOOOOoo@@@OOOOOO",
"@@@@@+OOooooOOOOOOooo@OO@@OOOOOO",
"@OOO@@OO@@OOOOOOO@O@O@+O@++OOOOO",
"OOOOO@@@@@@@OO@@@@@++@++@@+++OOO",
"OOOOO+++@@++@+@+++@@@@@@@@@@++++",
"OOO++++@@@++@++++@@++@OOOOO@@+++"
};
