/* XPM */
static char *ff13ac969c7d430cdc0f6d5efa676fe8oWVY968FIN2q9XAX[] = {
/* columns rows colors chars-per-pixel */
"32 32 17 1 ",
"  c #292829",
". c #472419",
"X c #542A1D",
"o c #612E04",
"O c #5C3022",
"+ c #753F2D",
"@ c #7A432D",
"# c gray43",
"$ c #853F02",
"% c #8C4C35",
"& c #AB5F41",
"* c #C97253",
"= c #F7AB68",
"- c #00B7EF",
"; c #50C8E6",
": c #99D9EA",
"> c white",
/* pixels */
"--;;;;::::::---::----------:----",
";;;;:::----:::::-------;;:::----",
";;:::-------;:;-----;-;;::;;----",
";::;;--------:;;----;;;;:;;;;---",
"::;;---------:;;-;;;;;:::;;;;;;;",
"::::-------:::   -;;;:::::::::;;",
"---::-----::  # #  -:--------:::",
"--;::-----:- #...# -:----------:",
";;;:-;;---:- ..... ;:-----------",
"-;::--;;-;:- ..... -:---------;;",
"-;:----;;:-- #...# -::-------;;:",
"-;:-----;:-  #...#  ;:------::::",
"-;::-----:    ...    ::---::::::",
"-;;::;---: XXX...XXX ;:::::::---",
"---;;::--O.XXX...XXX.O-::-------",
"----::;:-O.O@@@@@@@O.O::;-------",
"----:--:-+.@&&&&&&&@.+::;-------",
"---::--:++.@&*****&@.++:--------",
";:::---:@O+@&*****&@+O@--------;",
"::-----:@O%@&*****&@%O@-------:;",
"::------@O%@&*****&@%O@:-----:::",
"::-----:@@@@&&***&&@@@@:-----:::",
"--:----:-@&&&&***&&&&@-:----::::",
"---::--:>o$===***===$o>:-:::::--",
";;;:::::::o$&=***=&$o:>:-::::---",
";;;;--::::-:$=====$o::>::::-----",
";;;;----::-:o&&&&&o-::::::------",
":::::---:-->:o:$$o>:>:--::------",
":---::--::->:->:::>:>:;-:;;-----",
"-----:::::::>-:::::;;:;;::;;;---",
"-----;;;::;;:;:;>;::::::::::;;;;",
"---;;;;:::;;:;;;>:::-:----:::;;;"
};
