/* XPM */
static char *b8dcd9a4e37a4e87a9b65103cf35cb9fLFclEZSBCGF2BmqB[] = {
/* columns rows colors chars-per-pixel */
"32 32 18 1 ",
"  c None",
". c #292829",
"X c #573121",
"o c #7A432D",
"O c #990030",
"+ c #B55700",
"@ c #9C5A3C",
"# c #AB5F41",
"$ c #AB7342",
"% c #C97253",
"& c #948B0A",
"* c #F7AB68",
"= c #00B7EF",
"- c #50C8E6",
"; c gray63",
": c #99D9EA",
"> c gray86",
", c white",
/* pixels */
"==----::::::===============:====",
"----:::====::====..====--:::====",
"--:::=======---=.OO.-=--::--====",
"-::--========---.OO.----:----===",
"::--====....==--.-----:::-------",
"::::==..;.=====Xo%---:::::::::--",
"===::.>;.=.==Xo@@@@%-========:::",
"==--.>>;.=.==XXo@@@%-==========:",
"---.>>>;.=.===Xo@@@--===========",
"=--.>>>;.=.==--Xo@==-=XXXXXXX=--",
"=--.>>>;.=.=---Xo@==--XooXooX--:",
"=--.;;>;.=.=--=Xo@==--o+$$$$oo-:",
"=---..;;.=.--==Xo@===-o+&$&$o-::",
"=-----.;.=.-===Xo@===-o+$&&*o===",
"=XX----....-===Xo@====o+#$$*o===",
"=XXXoo-===.-===Xo@====o+#oo*o===",
"=Xoo@@ooXX.====Xo@====o+#oo*o===",
"=Xo@@@@@oooo-==Xo@====oooooooo==",
"-Xo@@%@@@@@ooooooooo@@@@%%%%%o=-",
"-:Xo@%%%%@@@@@@@@@@@@@@%%%%%@@:-",
"::Xo@@@%%%%%%%%%%%%%%%%%%@@@@:::",
"::Xoo@@@@@@@@@@@@@@@@@@@@@ooX:::",
"==:XXoooooooooooooooooooooXX::::",
"===::XXX,,,XXXXX::XXX,,,X:::::==",
"---::::,,,,,,,::::,,, ,,,::::===",
"----==:::==::::::::::::::::=====",
"----=========:::::===:::::======",
":::::=======::==========::======",
":===::=====::=====-----=:--=====",
"=====:::::::=====-------:----===",
"=====---::---------::::::::-----",
"===----:::-------:::======::----"
};
