/* XPM */
static char *ec41586a3b604924b99005e60007239dXy78IEy20xbYbZmM[] = {
/* columns rows colors chars-per-pixel */
"32 32 7 1 ",
"  c #464646",
". c gray43",
"X c #00B7EF",
"o c #50C8E6",
"O c #9C999C",
"+ c #B4B4B4",
"@ c #99D9EA",
/* pixels */
"XXoooo@@@@@@oooo@@@XXXXXXXX@XXXX",
"oooo@@@XXXXX@@@@@XXXXXXooo@@XXXX",
"oo@@@XXXXXXXX@ooXXXXXoooOOOOO.XX",
"o@@ooXXXOOOOOOoooooooo@OOOO....X",
"@@ooooOOOOOOOO.ooooo@@@OOO....  ",
"@@@@OOOOOOOOO......oo@@@OOO..   ",
"X@@OOOOOOOOO......   X@@@@O...  ",
"X@@OOOO..........    XX@@@@...  ",
"oX@OOO..........       XX@@@@. @",
"oX@OOO.........          XX@@@@@",
"oo@OOO.........           X@@@@@",
"o@@OOO.........             @@o@",
"@@@OOOO........             @@@@",
"XX@OOOO........             @@@X",
"XX@@@@OO.......             @@XX",
"XXX@@@@@@@.......          @@@@X",
"XXXoo@@@@@@@......   @@@@@@@@XXX",
"Xoooo@@OOOO@@@@@@@@@@@@@Xo@oXXXX",
"oooo@@OOOOOOO@@@@@X@@XXXXX@ooooo",
"oo@@OOOOOOO...o@@XXXXXX++++.. oo",
"oo@OOOO........  XXXXXX++.... oo",
"@@@OOOO......     XXXX+++...   @",
"XXOOOO.....        XXX+++...   @",
"XXOOOO....         oXo++++...  @",
"oOOO......        ooo@@++++..  @",
"oOOO......        @@@@@@@++.  @@",
"oOOO......       @@@@@@@@@+. @@@",
"@@OOO.....      @@@XX@@@@@@@@@@X",
"@@@@O......    @@@XXXXX@XX@@@@XX",
"XX@@@@@..... @@@@Xooooo@@oooooXX",
"XX@@@@@@@@@@@@@Xooo@@@@@@@@ooooo",
"XXXoooo@@@@@@oooo@@@XXXXXX@@oooo"
};
